<svg xmlns="http://www.w3.org/2000/svg" viewBox="0 0 360.5 132.8" width="112" height="40">
                            
                        
            <path d="M 199 84.3 c -5 -9 -6.7 -14 -6.7 -26.7 V 3.2 h 11 c 1.5 0 2.7 1.2 2.7 2.7 v 53.5 c 0 8 2.5 15 7 20.4 l 0.3 0.3 l -5 4 h 90.2 v 14 H 0 v -14 Z m -66 -6.5 c -1.4 0 -2.6 -1 -2.7 -2.5 V 24.2 h 10.4 c 1.3 0 2.7 0.8 2.8 2.3 c 1 -1.7 3.8 -2.2 6.3 -2.2 s 6 0.4 8.5 1.4 l 1.6 0.7 l -4.6 10.2 c -0.4 1 -1.4 1.7 -2.6 1.7 h -1 c -0.8 -0.4 -1.7 -0.6 -3 -0.6 c -2.8 0 -4.8 2.6 -4.8 5.6 v 34.5 Z M 186.7 12 c -0.5 1.3 -1.8 2 -3.6 1.7 c -5.7 -1.5 -8 2 -8 5.4 v 6 h 11.5 V 36 c 0 1 -1 2.4 -2.3 2.4 H 175 V 78 h -10.6 c -1.8 0 -3 -1.3 -3 -2.8 V 20 c 0 -21.4 19 -21 27 -18 c 1 0.3 2.2 1 2.2 1 l -4 9 Z m -118 56 C 60 73.8 51.4 78 39.3 78 C 18.2 78 0 62.2 0 39 S 18.3 0 39.2 0 c 11.2 0 21 3.4 29.6 12.2 l 0.4 0.4 l -7 7.4 c -0.8 1 -2.8 1.8 -4.6 0.4 c -5.5 -4.4 -10.6 -6.8 -18 -6.8 c -13 0 -25.2 10 -25.2 25.4 c 0 15.4 12.3 25.4 25 25.4 c 6.6 0 13 -2.5 16.7 -5.2 v -13 H 40.5 c -1.2 0 -2.3 -1.3 -2.3 -2.5 v -11 h 29.2 c 1.4 0 2.5 1 3 2.3 v 30.5 c 0 1 -0.6 1.8 -1.2 2.3 Z M 272 77.8 c -1.5 0 -2.7 -1 -2.8 -2.5 V 24.2 h 10.4 c 1.3 0 2.7 0.8 2.8 2.3 c 1 -1.7 3.8 -2.2 6.3 -2.2 s 6 0.4 8.5 1.4 l 1.6 0.7 l -4.5 10.2 c -0.3 1 -1.3 1.7 -2.5 1.7 h -1 c -0.7 -0.4 -1.7 -0.6 -3 -0.6 c -2.8 0 -4.8 2.6 -4.8 5.6 v 34.5 Z m -172 -41 c -5 0 -9.3 2.7 -11.3 7.7 h 22.8 c -2.3 -5.2 -6.6 -7.7 -11.6 -7.7 Z m 1 28.6 c 5 0 9 -2.3 12.4 -6.7 l 0.4 -0.5 l 11.7 6.5 l -0.7 1 c -6 7.5 -14.4 12 -23.5 12.2 c -17.6 0 -28 -13.4 -28 -27 c 0 -13.4 10.4 -26.7 28 -26.7 c 10.8 0 26.5 8.7 26.5 28.5 v 0.7 c 0 1.6 -1.3 3 -3 3 H 88.3 c 1.4 5.2 6.8 9 12.6 9 Z m 137 -28 c -8 0 -14 6 -14 13.7 c 0 7.8 6 14 14 14 s 13.6 -6.2 13.6 -14 c 0 -7.5 -5.7 -13.6 -13.7 -13.6 Z m 0 40.5 c -17.8 0 -28 -13.4 -28 -27 c 0 -13.3 10.2 -26.7 28 -26.7 c 17.5 0 28 13.4 28 26.8 c 0 13.6 -10.5 27 -28 27 Z m -76 38.4 c 0.5 -2.4 2.3 -3.7 4.5 -3.7 s 4 1.3 4.8 3.7 Z m 9.5 4.7 c -1.2 1.7 -2.8 2.6 -4.6 2.6 c -2.5 0 -4.8 -1.8 -5 -4.3 H 175 v -0.6 c 0 -6.3 -5 -9 -8.2 -9 c -5.7 0 -9 4 -9 8.4 s 3.3 8.6 9 8.6 c 3 0 5.5 -1.5 7.5 -4 Z m 28.2 -3 c 0 -2.8 2.2 -5 5.2 -5 s 5.3 2.2 5.3 5 c 0 3 -2.3 5.4 -5.3 5.4 s -5.2 -2.4 -5.2 -5.3 Z m -3.7 0 c 0 4.4 3.3 8.6 9 8.6 c 5.6 0 8.8 -4.2 8.8 -8.5 c 0 -4.2 -3.2 -8.4 -9 -8.4 c -5.5 0 -8.8 4.2 -8.8 8.5 Z m 23.5 0 c 0 -2.8 2.2 -5 5.3 -5 c 3 0 5.2 2.2 5.2 5 c 0 3 -2.2 5.4 -5.2 5.4 s -5.3 -2.4 -5.3 -5.3 Z m -3.7 0 c 0 4.4 3.3 8.6 9 8.6 c 5.6 0 9 -4.2 9 -8.5 c 0 -4.2 -3.4 -8.4 -9 -8.4 c -5.7 0 -9 4.2 -9 8.5 Z m 61.3 0 c 0 -3 2 -5 4.8 -5 c 2.6 0 4.8 2 4.8 5 c 0 2.7 -2 5 -4.8 5 c -3 0 -5 -2.3 -5 -5 Z m 13 -8 h -3.4 v 2 c -1.2 -1.6 -3 -2.4 -5 -2.4 c -4.4 0 -8.4 3 -8.4 8.4 c 0 5 3.7 8.2 8 8.2 c 2.2 0 4 -1 5.4 -2.5 v 1 c 0 2.5 -1.8 5 -5.4 5 c -1.6 0 -3 -1.2 -3.8 -2.2 l -2.8 2 c 1.8 2.4 4.6 3.3 6.8 3.3 c 4.4 0 8.5 -3 8.5 -8.4 Z M 130 119.2 v -13.4 l 3.5 -1 v 5.2 h 3 v 3.3 h -3 v 5 c 0 4.4 3.4 5.4 3.4 5.4 l -1.6 3 c -3.5 -1.8 -5.2 -4 -5.2 -7.5 Z m 176.5 -1 c 0 -3 2.2 -5.3 5.2 -5.3 s 5.2 2.2 5.2 5 c 0 3 -2.2 5.4 -5.3 5.4 c -3 0 -5.3 -2.4 -5.3 -5.3 Z m -3.7 0 c 0 4.2 3.3 8.4 9 8.4 c 5.6 0 8.8 -4.2 8.8 -8.5 c 0 -4.2 -3.2 -8.4 -9 -8.4 c -5.5 0 -8.8 4.2 -8.8 8.5 Z m -56 -11.5 c 0 1 1 2 2 2 s 2 -1 2 -2 s -1 -2 -2 -2 s -2 1 -2 2 Z m 0.3 19.5 h 3.5 V 110 h -3.5 Z m 109.5 -8 c 0 2.8 -2.3 5.2 -5 5.2 c -3 0 -5.2 -2.4 -5.2 -5.3 c 0 -2.8 2.3 -5 5 -5 c 3 0 5.2 2.2 5.2 5 Z m -10 -8.2 H 343 v 21.8 h 3.5 v -7.6 c 1 1.4 2.8 2.4 5.2 2.4 c 5.2 0 8.5 -4.5 8.5 -8.5 s -3 -8.4 -8.4 -8.4 c -2 0 -4 1 -5.2 2.4 Z M 140 126.2 h 3.5 v -9 c 0 -2.7 1.8 -4 4 -4 c 2.3 0 3.8 1 3.8 4 v 9 h 3.5 v -9.8 c 0 -4 -3 -6.8 -6.3 -6.8 c -2.2 0 -4 1 -5 2.5 v -6.8 h -3.5 Z m 38.5 0 h 3.5 v -11.5 h 3.4 v -3.2 h -3.4 v -1 c 0 -1.3 0.8 -2.4 2.2 -2.4 c 0.6 0 1 0.2 1.5 0.4 l 1.4 -3.2 c -0.8 -0.3 -2 -0.4 -2.7 -0.4 c -4.2 0 -6 2.8 -6 5.8 Z m 9.7 -21 v 14 c 0 3.4 1.6 5.7 5.2 7.4 l 1.7 -3 s -3.5 -1 -3.5 -5.3 v -13 Z m 48.3 21 h 3.5 v -10.7 c 0 -1.5 1 -2.4 2.4 -2.4 c 0.3 0 1 0.3 1.3 0.5 l 1 -3.4 c -0.4 -0.2 -1 -0.4 -1.8 -0.4 c -1.4 0 -2.6 1 -3.2 2.2 V 110 h -3.3 Z m 18.5 0 h 3.5 v -9 c 0 -2.7 1.7 -4 4 -4 s 3.8 1 3.8 4 v 9 h 3.5 v -9.8 c 0 -4 -3 -6.8 -6.3 -6.8 c -2.2 0 -4 1 -5 2.5 v -2 h -3.5 Z m 39 0 h 3.5 v -10.7 c 0 -1.5 1.2 -2.4 2.5 -2.4 c 0.3 0 1 0.3 1.3 0.5 l 1.2 -3.4 c -0.5 -0.2 -1 -0.4 -2 -0.4 c -1.3 0 -2.5 1 -3 2.2 l -0.2 -1.8 h -3.2 Z m 30 -6.8 c 0 4.5 3.4 7.2 7.2 7.2 c 4 0 7.4 -2.7 7.4 -7.2 V 110 h -3.5 v 9 c 0 2.5 -1.7 4.2 -4 4.2 c -2 0 -3.8 -1.7 -3.8 -4 V 110 H 324 v 9.4" />
            <path class="logo_baseline" d="M 292.3 77.8 c 3.4 0 6.2 -2.7 6.2 -6 c 0 -3.5 -2.8 -6.3 -6.2 -6.3 c -3.4 0 -6 2.8 -6 6.2 c 0 3.4 2.6 6 6 6 Z m 0 -11.3 c 2.8 0 5.2 2.3 5.2 5.2 c 0 3 -2.4 5 -5.2 5 c -2.8 0 -5 -2 -5 -5 s 2.2 -5.2 5 -5.2 Z m 1 5.5 c 1 0 2 -0.5 2 -2 c 0 -1.4 -1.2 -1.7 -2.5 -1.7 h -3 v 7 h 1 V 72 h 1.4 l 1.8 3.2 h 1 Z m -0.6 -2.7 c 0.8 0 1.5 0 1.5 1 c 0 0.8 -1.3 0.7 -2.2 0.7 h -1 v -1.7 h 1.7" />
        </svg>